<?xml version="1.0" standalone="no"?>
<!DOCTYPE svg PUBLIC "-//W3C//DTD SVG 20010904//EN"
 "http://www.w3.org/TR/2001/REC-SVG-20010904/DTD/svg10.dtd">
<svg version="1.0" xmlns="http://www.w3.org/2000/svg"
 width="640.000000pt" height="640.000000pt" viewBox="0 0 640.000000 640.000000"
 preserveAspectRatio="xMidYMid meet">
<metadata>
Created by potrace 1.11, written by Peter Selinger 2001-2013
</metadata>
<g transform="translate(0.000000,640.000000) scale(0.100000,-0.100000)"
fill="#000000" stroke="none">
<path d="M5675 5899 c-1282 -126 -2293 -1104 -2450 -2370 -18 -144 -20 -456
-4 -615 116 -1174 1024 -2157 2195 -2374 127 -24 354 -50 437 -50 l57 0 0 144
0 145 -52 5 c-29 3 -109 10 -178 16 -457 39 -935 236 -1301 537 -665 546 -987
1405 -849 2267 38 237 140 530 262 750 249 448 597 781 1053 1006 307 153 601
229 978 256 l87 6 0 144 0 144 -77 -1 c-43 -1 -114 -5 -158 -10z"/>
<path d="M1966 5423 c3 -38 13 -120 21 -183 11 -81 17 -220 20 -470 2 -195 6
-365 8 -377 5 -22 10 -23 90 -23 84 0 86 0 96 28 30 76 32 134 10 267 -33 209
-45 426 -33 610 8 140 8 162 -6 177 -21 24 -75 38 -150 38 l-63 0 7 -67z"/>
<path d="M4655 4312 c-77 -24 -145 -58 -335 -173 -85 -52 -201 -119 -257 -149
-57 -30 -103 -58 -103 -62 0 -15 86 -68 112 -68 44 0 125 41 261 133 215 146
315 187 457 187 151 -1 237 -39 406 -181 128 -108 164 -129 218 -129 39 0 43
9 26 54 -33 87 -317 302 -491 372 -86 35 -209 41 -294 16z"/>
<path d="M5744 3954 c-26 -33 -28 -46 -34 -153 -3 -64 -5 -117 -4 -119 1 -2
27 -7 57 -11 67 -9 65 -13 74 134 5 90 4 105 -16 143 -12 23 -28 42 -36 42 -8
0 -26 -16 -41 -36z"/>
<path d="M2263 3955 c-84 -15 -154 -37 -243 -77 -35 -16 -111 -47 -168 -70
-127 -49 -146 -66 -137 -116 4 -21 15 -57 26 -81 19 -43 20 -43 57 -37 20 3
46 6 57 6 11 0 58 28 105 61 89 65 242 144 297 155 l33 6 -19 -53 c-77 -221
-214 -423 -455 -667 l-151 -153 35 -65 c19 -36 38 -67 41 -69 3 -2 55 5 115
16 168 30 364 49 526 49 l148 0 45 58 c25 31 45 62 45 68 0 25 -108 38 -352
42 -181 2 -248 7 -248 15 0 7 64 97 141 201 207 279 270 391 319 563 l18 61
-34 51 c-34 50 -36 51 -82 50 -26 0 -79 -7 -119 -14z"/>
<path d="M4610 3945 c-93 -30 -219 -93 -329 -165 -96 -61 -94 -68 24 -69 81
-1 115 12 244 93 100 64 155 81 230 72 80 -10 146 -46 251 -141 52 -47 105
-88 116 -91 23 -6 136 35 141 51 4 14 -277 197 -362 236 -98 45 -207 50 -315
14z"/>
<path d="M4535 3674 c-183 -33 -335 -87 -447 -160 -70 -45 -178 -139 -178
-155 0 -5 38 -9 85 -9 109 0 112 -15 13 -67 -69 -36 -73 -40 -69 -68 1 -16 9
-42 17 -57 17 -34 50 -36 171 -13 115 22 157 19 325 -24 84 -22 188 -44 231
-50 262 -36 484 26 568 158 31 48 45 88 35 98 -3 3 -61 -15 -128 -40 -196 -73
-268 -90 -383 -90 -89 0 -114 5 -225 41 -180 59 -244 74 -340 81 -66 5 -85 9
-85 21 0 29 259 187 392 239 l51 20 6 -37 c3 -20 8 -61 12 -89 6 -57 33 -104
77 -137 40 -30 153 -30 193 0 48 35 63 66 79 158 8 49 17 91 19 93 6 6 108
-46 264 -134 150 -85 193 -96 235 -63 15 12 27 25 27 29 0 13 -117 66 -210 96
-47 15 -143 52 -215 82 -223 94 -334 110 -520 77z"/>
<path d="M1167 3620 c-20 -4 -39 -9 -42 -12 -8 -8 -45 -160 -45 -185 0 -28
-21 -37 -104 -47 -33 -4 -79 -15 -104 -26 -44 -20 -45 -20 -39 -62 3 -25 15
-51 31 -66 25 -25 25 -25 123 -15 54 5 102 8 107 5 5 -3 6 -61 3 -130 l-5
-126 28 -28 c38 -38 73 -37 115 5 42 42 51 93 35 206 -9 64 -9 86 0 91 7 4 40
10 74 14 62 7 213 40 222 49 3 2 -7 30 -21 62 -19 43 -29 56 -41 51 -9 -3 -66
-9 -128 -12 l-113 -7 4 89 c2 49 5 104 6 122 3 31 2 32 -33 31 -19 -1 -52 -5
-73 -9z"/>
<path d="M5872 3364 c-56 -86 -83 -191 -107 -429 -9 -88 -19 -170 -21 -181 -5
-17 10 -35 73 -88 43 -36 81 -66 86 -66 9 0 8 746 -1 777 -7 21 -8 21 -30 -13z"/>
<path d="M5327 2670 c-77 -84 -94 -162 -54 -240 29 -60 103 -96 302 -150 82
-23 151 -43 153 -45 2 -2 11 -38 18 -79 19 -96 36 -137 80 -186 31 -34 34 -43
28 -74 -7 -41 -2 -40 -91 -22 -37 8 -160 27 -273 41 -239 31 -362 60 -465 110
-68 33 -79 42 -125 109 -55 82 -92 116 -125 116 -45 0 -145 -100 -210 -211
-68 -116 -138 -330 -122 -372 3 -9 33 -30 65 -46 56 -28 61 -29 75 -13 25 29
46 77 68 159 28 101 51 146 91 176 59 44 64 43 234 -41 196 -98 351 -150 564
-191 100 -20 279 -41 341 -41 l29 0 -2 310 -3 310 -245 98 -245 98 -22 100
c-12 54 -24 105 -25 113 -2 9 -17 -2 -41 -29z"/>
<path d="M1042 2523 c-27 -3 -40 -14 -66 -56 -19 -29 -32 -55 -29 -59 2 -4 32
-16 67 -27 61 -19 71 -19 242 -6 213 17 448 19 563 5 129 -17 719 13 741 37 4
4 10 21 14 36 6 26 3 30 -41 50 -46 21 -60 22 -348 22 -200 0 -318 -4 -355
-12 -40 -9 -71 -10 -115 -3 -63 11 -616 22 -673 13z"/>
<path d="M1830 2050 c-65 -12 -140 -42 -193 -79 -26 -18 -47 -34 -47 -37 0
-13 42 -83 67 -111 l28 -32 95 39 c52 22 112 40 132 40 44 0 139 -19 152 -30
14 -14 -39 -93 -103 -152 -33 -31 -111 -85 -174 -122 -63 -37 -123 -76 -133
-87 -26 -29 -22 -86 9 -117 35 -34 93 -31 265 14 107 28 148 34 189 30 53 -6
220 -59 235 -74 6 -6 -29 -39 -81 -81 -74 -59 -106 -77 -178 -102 -113 -38
-233 -59 -339 -59 l-84 0 0 -73 0 -73 57 -34 56 -34 126 43 c302 105 471 193
591 307 l74 72 -11 77 c-6 43 -17 81 -24 86 -29 19 -227 77 -299 89 -41 6 -85
14 -97 16 -20 4 -19 9 32 90 47 75 115 224 115 253 0 6 -27 32 -60 59 -48 38
-76 52 -128 65 -85 20 -213 28 -272 17z"/>
<path d="M4757 1799 l-26 -43 32 -23 c64 -47 613 -312 729 -352 101 -34 383
-111 409 -111 15 0 11 190 -3 194 -7 2 -76 11 -153 20 -253 30 -345 64 -580
216 -163 106 -221 131 -311 138 l-71 4 -26 -43z"/>
</g>
</svg>
